<svg width="500" height="600" viewBox="0 0 300 90.1" xmlns="http://www.w3.org/2000/svg"><g id="svgGroup" stroke-linecap="round" fill-rule="evenodd" font-size="9pt" stroke="#613885" stroke-width="0.25mm" fill="#141414" style="stroke:#613885;stroke-width:0.25mm;fill:#141414"><path d="M 180.2 45.7 L 180.2 56.5 Q 180.2 58.7 180.25 60.6 A 16.186 16.186 0 0 0 180.326 61.824 Q 180.387 62.419 180.493 62.924 A 7.023 7.023 0 0 0 180.7 63.7 A 0.802 0.802 0 0 0 180.907 63.984 Q 181.266 64.317 182.15 64.6 A 12.769 12.769 0 0 0 184.05 65.046 A 15.024 15.024 0 0 0 184.85 65.15 Q 186.3 65.3 186.9 65.3 A 1.235 1.235 0 0 1 187.06 65.599 Q 187.215 66.005 187.25 66.7 A 4.42 4.42 0 0 1 187.255 66.863 Q 187.267 67.733 186.9 68.1 A 4641.183 4641.183 0 0 0 184.409 67.935 Q 183.273 67.859 182.261 67.793 A 2608.521 2608.521 0 0 0 181.6 67.75 A 67.014 67.014 0 0 0 179.312 67.642 Q 178.112 67.605 176.783 67.601 A 109.816 109.816 0 0 0 176.4 67.6 A 90.068 90.068 0 0 0 173.777 67.636 Q 172.493 67.674 171.35 67.75 L 166.1 68.1 A 1.038 1.038 0 0 1 165.87 67.733 Q 165.725 67.356 165.748 66.755 A 4.658 4.658 0 0 1 165.75 66.7 Q 165.789 65.915 165.982 65.5 A 1.119 1.119 0 0 1 166.1 65.3 Q 166.653 65.3 167.884 65.173 A 57.9 57.9 0 0 0 168.1 65.15 Q 169.5 65 170.8 64.6 A 6.355 6.355 0 0 0 171.279 64.433 Q 172.005 64.144 172.164 63.808 A 0.467 0.467 0 0 0 172.2 63.7 A 7.385 7.385 0 0 0 172.451 62.702 Q 172.545 62.187 172.596 61.587 A 16.849 16.849 0 0 0 172.65 60.6 Q 172.7 58.7 172.7 56.5 L 172.7 46.7 A 75.357 75.357 0 0 0 172.622 43.157 Q 172.469 39.908 172.012 37.665 A 19.586 19.586 0 0 0 171.9 37.15 A 11.793 11.793 0 0 0 171.236 35.097 Q 170.411 33.208 169 32.2 A 7.195 7.195 0 0 0 166.881 31.188 Q 165.923 30.898 164.77 30.781 A 16.469 16.469 0 0 0 163.1 30.7 A 6.653 6.653 0 0 0 161.351 30.948 Q 160.301 31.235 159.15 31.85 A 26.404 26.404 0 0 0 156.963 33.153 A 20.512 20.512 0 0 0 155.4 34.3 Q 153.8 35.6 153.8 36.1 L 153.8 56.5 Q 153.8 58.7 153.85 60.6 A 16.186 16.186 0 0 0 153.926 61.824 Q 153.987 62.419 154.093 62.924 A 7.023 7.023 0 0 0 154.3 63.7 A 0.802 0.802 0 0 0 154.507 63.984 Q 154.866 64.317 155.75 64.6 A 12.769 12.769 0 0 0 157.65 65.046 A 15.024 15.024 0 0 0 158.45 65.15 Q 159.9 65.3 160.5 65.3 A 1.235 1.235 0 0 1 160.66 65.599 Q 160.815 66.005 160.85 66.7 A 4.42 4.42 0 0 1 160.855 66.863 Q 160.867 67.733 160.5 68.1 A 4641.183 4641.183 0 0 0 158.009 67.935 Q 156.873 67.859 155.861 67.793 A 2608.521 2608.521 0 0 0 155.2 67.75 A 67.014 67.014 0 0 0 152.912 67.642 Q 151.712 67.605 150.383 67.601 A 109.816 109.816 0 0 0 150 67.6 A 90.068 90.068 0 0 0 147.377 67.636 Q 146.093 67.674 144.95 67.75 L 139.7 68.1 A 1.038 1.038 0 0 1 139.47 67.733 Q 139.325 67.356 139.348 66.755 A 4.658 4.658 0 0 1 139.35 66.7 Q 139.389 65.915 139.582 65.5 A 1.119 1.119 0 0 1 139.7 65.3 Q 140.253 65.3 141.484 65.173 A 57.9 57.9 0 0 0 141.7 65.15 Q 143.1 65 144.4 64.6 A 6.355 6.355 0 0 0 144.879 64.433 Q 145.605 64.144 145.764 63.808 A 0.467 0.467 0 0 0 145.8 63.7 A 7.385 7.385 0 0 0 146.051 62.702 Q 146.145 62.187 146.196 61.587 A 16.849 16.849 0 0 0 146.25 60.6 Q 146.3 58.7 146.3 56.5 L 146.3 13.3 Q 146.3 12.405 146.26 11.031 A 154.584 154.584 0 0 0 146.25 10.7 A 11.207 11.207 0 0 0 146.185 9.768 Q 146.079 8.85 145.818 8.241 A 3.267 3.267 0 0 0 145.8 8.2 A 1.81 1.81 0 0 0 145.011 7.268 Q 144.484 6.943 143.65 6.8 Q 141.9 6.5 139.9 6.5 A 0.055 0.055 0 0 1 139.864 6.456 Q 139.791 6.266 139.75 5.25 Q 139.708 4.191 139.917 3.957 A 0.195 0.195 0 0 1 140 3.9 Q 143.7 3.5 147.2 2.45 A 53.964 53.964 0 0 0 152.821 0.429 A 48.589 48.589 0 0 0 153.8 0 A 0.633 0.633 0 0 1 154.157 0.116 Q 154.354 0.248 154.539 0.532 A 2.472 2.472 0 0 1 154.55 0.55 A 2.607 2.607 0 0 1 154.763 0.955 Q 154.865 1.202 154.891 1.438 A 1.471 1.471 0 0 1 154.9 1.6 L 154.35 3.8 Q 153.8 6 153.8 10.1 L 153.8 32.2 A 0.183 0.183 0 0 0 153.829 32.305 Q 153.877 32.377 154.007 32.394 A 0.693 0.693 0 0 0 154.1 32.4 Q 154.2 32.4 154.4 32.2 Q 155.4 31.1 157.65 29.4 A 31.296 31.296 0 0 1 161.932 26.693 A 34.905 34.905 0 0 1 162.6 26.35 A 14.731 14.731 0 0 1 164.648 25.501 Q 165.809 25.126 166.887 25.032 A 8.181 8.181 0 0 1 167.6 25 A 20.487 20.487 0 0 1 170.518 25.194 Q 172.01 25.409 173.22 25.863 A 8.414 8.414 0 0 1 175.6 27.2 A 9.166 9.166 0 0 1 177.919 30.107 Q 178.565 31.343 178.985 32.889 A 18.535 18.535 0 0 1 179.25 34 Q 179.896 37.127 180.103 41.408 A 89.169 89.169 0 0 1 180.2 45.7 Z M 10.2 3.2 L 48.4 3.2 A 7.661 7.661 0 0 0 49.285 3.144 Q 50.238 3.032 51.5 2.7 A 40.195 40.195 0 0 0 52.388 2.456 Q 53.311 2.19 53.921 1.956 A 8.028 8.028 0 0 0 54.3 1.8 Q 55.1 1.4 55.4 1.4 Q 55.62 1.4 55.894 1.508 A 2.536 2.536 0 0 1 56.1 1.6 A 207.22 207.22 0 0 0 57.09 9.245 A 188.363 188.363 0 0 0 57.25 10.3 A 170.91 170.91 0 0 0 58.502 17.42 A 154.891 154.891 0 0 0 58.7 18.4 A 1.682 1.682 0 0 1 58.564 18.52 Q 58.359 18.684 58 18.9 A 1.584 1.584 0 0 1 57.331 19.116 Q 57.12 19.136 56.887 19.111 A 2.63 2.63 0 0 1 56.8 19.1 A 3.737 3.737 0 0 1 56.335 19.073 Q 55.631 18.985 55.4 18.6 A 28.298 28.298 0 0 0 54.288 14.497 Q 53.403 12.026 52.1 10.1 A 8.71 8.71 0 0 0 50.353 8.164 A 6.597 6.597 0 0 0 46.1 6.7 L 33.7 6.7 L 33.7 56.5 Q 33.7 58.7 33.75 60.6 A 16.186 16.186 0 0 0 33.826 61.824 Q 33.887 62.419 33.993 62.924 A 7.023 7.023 0 0 0 34.2 63.7 Q 34.386 64.165 35.61 64.544 A 9.172 9.172 0 0 0 35.8 64.6 A 16.295 16.295 0 0 0 38.365 65.109 A 18.149 18.149 0 0 0 38.75 65.15 Q 40.128 65.283 40.755 65.298 A 6.172 6.172 0 0 0 40.9 65.3 A 1.235 1.235 0 0 1 41.06 65.599 Q 41.215 66.005 41.25 66.7 A 4.42 4.42 0 0 1 41.255 66.863 Q 41.267 67.733 40.9 68.1 Q 37.9 67.9 35.15 67.75 Q 32.4 67.6 29.5 67.6 Q 26.7 67.6 23.8 67.75 Q 20.9 67.9 17.9 68.1 A 1.038 1.038 0 0 1 17.67 67.733 Q 17.525 67.356 17.548 66.755 A 4.658 4.658 0 0 1 17.55 66.7 Q 17.589 65.915 17.782 65.5 A 1.119 1.119 0 0 1 17.9 65.3 Q 18.5 65.3 20.1 65.15 Q 21.7 65 23.15 64.6 A 7.75 7.75 0 0 0 23.646 64.446 Q 24.619 64.106 24.7 63.7 A 7.385 7.385 0 0 0 24.951 62.702 Q 25.045 62.187 25.096 61.587 A 16.849 16.849 0 0 0 25.15 60.6 Q 25.2 58.7 25.2 56.5 L 25.2 6.7 L 12.6 6.7 A 6.701 6.701 0 0 0 7.392 9.076 A 9.777 9.777 0 0 0 6.6 10.1 Q 4.444 13.288 3.342 17.969 A 34.66 34.66 0 0 0 3.2 18.6 Q 2.9 19.1 1.8 19.1 A 2.497 2.497 0 0 1 1.577 19.122 Q 1.296 19.137 1.061 19.079 A 1.291 1.291 0 0 1 0.65 18.9 A 8.728 8.728 0 0 1 0.441 18.756 Q 0.15 18.55 0 18.4 Q 0.8 14.5 1.4 10.3 A 277.529 277.529 0 0 0 2.373 2.72 A 305.742 305.742 0 0 0 2.5 1.6 A 1.602 1.602 0 0 1 2.934 1.496 Q 3.172 1.471 3.445 1.506 A 3.073 3.073 0 0 1 3.7 1.55 A 7.577 7.577 0 0 1 4.108 1.649 Q 4.518 1.761 4.791 1.896 A 2.27 2.27 0 0 1 4.8 1.9 A 10.299 10.299 0 0 0 5.436 2.155 Q 6.216 2.441 7.35 2.75 A 15.383 15.383 0 0 0 8.524 3.024 Q 9.45 3.2 10.2 3.2 Z M 228.8 30.7 L 239.2 57.1 L 240 54.95 A 257.504 257.504 0 0 1 240.431 53.8 Q 241.027 52.221 241.831 50.143 A 761.261 761.261 0 0 1 242.1 49.45 Q 243.4 46.1 244.9 42.2 Q 246.4 38.3 247.8 34.9 A 6.662 6.662 0 0 0 248.155 33.903 A 5.397 5.397 0 0 0 248.3 33.15 A 20.438 20.438 0 0 0 248.353 32.653 Q 248.393 32.215 248.399 31.9 A 5.524 5.524 0 0 0 248.4 31.8 A 2.413 2.413 0 0 0 247.463 29.861 A 3.924 3.924 0 0 0 246.85 29.45 A 6.258 6.258 0 0 0 245.32 28.871 Q 244.627 28.702 243.816 28.638 A 13.029 13.029 0 0 0 242.8 28.6 A 0.266 0.266 0 0 1 242.57 28.455 Q 242.427 28.227 242.404 27.639 A 6.124 6.124 0 0 1 242.4 27.4 Q 242.4 26.516 242.617 26.066 A 0.965 0.965 0 0 1 242.8 25.8 A 266.498 266.498 0 0 0 243.428 25.856 Q 244.435 25.945 246.076 26.085 A 1706.544 1706.544 0 0 0 246.25 26.1 A 52.484 52.484 0 0 0 248.596 26.244 Q 249.83 26.293 251.204 26.299 A 88.067 88.067 0 0 0 251.6 26.3 Q 254.4 26.3 256.35 26.1 Q 258.026 25.928 259.369 25.83 A 68.931 68.931 0 0 1 259.8 25.8 A 0.808 0.808 0 0 1 259.917 26.035 Q 260.049 26.438 259.971 27.217 A 7.747 7.747 0 0 1 259.95 27.4 Q 259.8 28.6 259.5 28.6 Q 259.1 28.6 257.85 28.9 A 10.317 10.317 0 0 0 256.412 29.364 A 13.316 13.316 0 0 0 255.25 29.9 Q 253.9 30.6 253.3 32 Q 251.117 37.159 249.378 41.334 A 1286.936 1286.936 0 0 0 249.35 41.4 A 9948.947 9948.947 0 0 1 246.364 48.559 A 9071.879 9071.879 0 0 1 245.95 49.55 Q 244.3 53.5 242.55 57.75 Q 240.8 62 238.7 67.2 Q 236.9 71.7 235.2 76.2 Q 233.5 80.7 230.9 84.6 Q 229.3 87.1 227.05 88.6 Q 224.8 90.1 222.4 90.1 Q 221 90.1 219.6 89.3 A 2.428 2.428 0 0 1 218.584 88.129 Q 218.203 87.267 218.2 85.92 A 9.649 9.649 0 0 1 218.2 85.9 Q 218.2 85 218.55 84.2 Q 218.9 83.4 219.3 83 A 36.034 36.034 0 0 0 221.207 82.952 Q 222.366 82.891 223.35 82.75 A 7.079 7.079 0 0 0 225.709 81.957 A 9.066 9.066 0 0 0 226.75 81.3 Q 227.859 80.494 229.125 79.056 A 30.429 30.429 0 0 0 230.4 77.5 Q 231.2 76.4 232.2 74.25 Q 233.2 72.1 234.05 70.1 Q 234.9 68.1 235 67.6 Q 232.3 60.6 229.9 54.55 Q 227.5 48.5 225.05 42.65 Q 222.6 36.8 219.7 30.6 A 2.905 2.905 0 0 0 217.793 28.975 A 4.189 4.189 0 0 0 217.2 28.85 Q 215.4 28.6 214.5 28.6 L 214.3 28.6 A 0.055 0.055 0 0 1 214.266 28.553 Q 214.2 28.349 214.2 27.264 A 36.285 36.285 0 0 1 214.2 27.25 A 30.456 30.456 0 0 1 214.202 26.932 Q 214.21 26.114 214.266 25.883 A 0.193 0.193 0 0 1 214.299 25.801 A 766.759 766.759 0 0 1 215.081 25.856 Q 215.971 25.921 217.206 26.012 A 3330.953 3330.953 0 0 1 218.4 26.1 A 74.006 74.006 0 0 0 222.436 26.284 A 86.265 86.265 0 0 0 224.1 26.3 Q 226.9 26.3 229.75 26.1 Q 232.494 25.907 233.801 25.808 A 189.862 189.862 0 0 0 233.9 25.8 A 0.957 0.957 0 0 1 233.97 26.001 Q 234.068 26.406 234.014 27.217 A 11.498 11.498 0 0 1 234 27.4 A 5.598 5.598 0 0 1 233.957 27.777 Q 233.831 28.6 233.5 28.6 A 3.744 3.744 0 0 0 233.356 28.604 Q 233.005 28.618 232.151 28.688 A 108.017 108.017 0 0 0 232 28.7 Q 230.8 28.8 229.75 29.15 A 2.459 2.459 0 0 0 229.315 29.339 Q 229.085 29.47 228.94 29.637 A 0.984 0.984 0 0 0 228.7 30.3 A 0.851 0.851 0 0 0 228.759 30.606 A 1.045 1.045 0 0 0 228.8 30.7 Z M 110 61.3 L 121.5 61.3 Q 125.4 61.3 128.85 62.7 A 17.82 17.82 0 0 1 131.931 64.296 A 13.748 13.748 0 0 1 134.45 66.4 A 8.511 8.511 0 0 1 135.881 68.43 A 6.831 6.831 0 0 1 136.6 71.5 A 9.832 9.832 0 0 1 135.969 74.89 Q 135.526 76.102 134.772 77.344 A 17.358 17.358 0 0 1 134.55 77.7 A 22.721 22.721 0 0 1 131.604 81.359 A 29.344 29.344 0 0 1 129 83.7 A 28.91 28.91 0 0 1 122.86 87.434 A 33.833 33.833 0 0 1 120.9 88.25 Q 116.3 90 111.2 90 A 24.529 24.529 0 0 1 103.43 88.71 A 27.166 27.166 0 0 1 103.4 88.7 Q 99.5 87.4 96.9 84.75 A 8.984 8.984 0 0 1 94.316 78.717 A 11.841 11.841 0 0 1 94.3 78.1 Q 94.3 75.952 96.112 73.994 A 9.893 9.893 0 0 1 96.2 73.9 A 23.17 23.17 0 0 1 99.965 70.719 A 26.191 26.191 0 0 1 100.6 70.3 Q 103.1 68.7 104.7 67.9 Q 103.007 67.302 101.164 66.109 A 23.113 23.113 0 0 1 101.15 66.1 Q 99.3 64.9 98 63.05 A 7.17 7.17 0 0 1 96.702 58.987 A 8.745 8.745 0 0 1 96.7 58.8 Q 97.6 57.8 99.25 56.45 Q 100.9 55.1 102.55 53.9 Q 104.2 52.7 105.1 52.2 Q 101.5 50.2 99.25 46.75 A 17.211 17.211 0 0 1 99.215 46.696 Q 98.142 45.037 97.589 43.344 A 11.668 11.668 0 0 1 97 39.7 Q 97 35.8 99.15 32.45 A 16.097 16.097 0 0 1 104.249 27.474 A 19.165 19.165 0 0 1 105.05 27 A 16.589 16.589 0 0 1 112.054 24.951 A 20.1 20.1 0 0 1 113.5 24.9 A 20.036 20.036 0 0 1 115.847 25.03 Q 117.024 25.169 118.026 25.457 A 10.432 10.432 0 0 1 118.9 25.75 Q 120.584 26.401 121.741 26.846 A 1364.589 1364.589 0 0 0 122.4 27.1 A 217.851 217.851 0 0 0 122.729 27.217 Q 123.806 27.6 123.85 27.6 Q 123.894 27.6 124.434 27.753 A 64.275 64.275 0 0 1 124.6 27.8 L 135.1 26.3 A 2.069 2.069 0 0 1 135.472 26.463 Q 136 26.764 136 27.3 Q 136 27.9 135.3 29.35 Q 134.6 30.8 133.8 31.3 A 46.224 46.224 0 0 0 132.546 31.214 Q 131.883 31.177 131.148 31.152 A 73.745 73.745 0 0 0 131.1 31.15 Q 129.6 31.1 128.5 31 L 127.4 30.9 Q 127.018 30.9 127.001 31.173 A 0.421 0.421 0 0 0 127 31.2 A 1.566 1.566 0 0 1 127.176 31.426 Q 127.601 32.056 128.486 34.009 A 75.527 75.527 0 0 1 128.55 34.15 A 12.637 12.637 0 0 1 129.48 37.288 A 17.157 17.157 0 0 1 129.7 40.1 A 11.349 11.349 0 0 1 128.637 44.832 A 14.874 14.874 0 0 1 127.55 46.8 Q 125.4 50.1 121.65 52.25 Q 117.9 54.4 113.2 54.4 Q 111.9 54.4 110.2 54.1 Q 108.826 53.857 108.04 53.615 A 6.057 6.057 0 0 1 107.7 53.5 A 9.404 9.404 0 0 0 105.946 54.732 A 11.377 11.377 0 0 0 105.25 55.4 A 5.33 5.33 0 0 0 104.644 56.15 Q 104.34 56.611 104.206 57.072 A 2.597 2.597 0 0 0 104.1 57.8 A 1.03 1.03 0 0 0 104.2 58.207 Q 104.487 58.861 105.6 59.9 A 4.782 4.782 0 0 0 107.416 60.939 Q 108.145 61.176 109.03 61.257 A 10.59 10.59 0 0 0 110 61.3 Z M 293.4 38.6 L 293.4 58.7 Q 293.4 60.514 294.038 61.827 A 5.329 5.329 0 0 0 294.1 61.95 Q 294.704 63.115 295.978 63.275 A 3.391 3.391 0 0 0 296.4 63.3 A 5.297 5.297 0 0 0 297.254 63.235 Q 298.063 63.103 298.6 62.7 Q 299.4 62.1 299.6 62 Q 299.759 62 299.855 62.19 A 0.822 0.822 0 0 1 299.9 62.3 A 2.608 2.608 0 0 1 299.953 62.478 Q 300 62.663 300 62.8 A 4.059 4.059 0 0 1 299.89 63.765 A 3.17 3.17 0 0 1 299.5 64.7 Q 298.9 65.2 297.55 66.1 Q 296.2 67 294.75 67.7 A 8.867 8.867 0 0 1 293.794 68.099 Q 293.304 68.268 292.86 68.342 A 4.002 4.002 0 0 1 292.2 68.4 Q 290.151 68.4 288.53 66.4 A 8.477 8.477 0 0 1 288.45 66.3 A 12.553 12.553 0 0 1 287.121 64.242 A 9.658 9.658 0 0 1 286.3 62 A 4.887 4.887 0 0 1 286.075 62.208 Q 285.698 62.539 284.946 63.121 A 70.689 70.689 0 0 1 284.45 63.5 Q 283 64.6 281.1 65.75 Q 279.2 66.9 277.35 67.75 Q 276.146 68.303 275.175 68.496 A 5.012 5.012 0 0 1 274.2 68.6 A 11.685 11.685 0 0 1 269.523 67.683 A 11.156 11.156 0 0 1 266.1 65.35 A 10.709 10.709 0 0 1 262.801 57.583 A 13.269 13.269 0 0 1 262.8 57.4 A 9.11 9.11 0 0 1 263.2 54.653 A 7.724 7.724 0 0 1 264.45 52.25 A 13.088 13.088 0 0 1 265.451 51.084 Q 265.984 50.537 266.511 50.155 A 5.077 5.077 0 0 1 267.7 49.5 Q 270.5 48.5 273.95 47.35 Q 277.4 46.2 280.4 45.1 Q 283.4 44 284.8 43.4 A 3.265 3.265 0 0 0 285.181 43.231 Q 285.653 42.981 285.8 42.65 Q 285.985 42.233 285.999 41.084 A 15.724 15.724 0 0 0 286 40.9 L 286 38.3 A 9.211 9.211 0 0 0 285.246 34.691 A 11.108 11.108 0 0 0 284.9 33.95 Q 283.8 31.8 281.9 30.35 Q 280 28.9 277.6 28.9 A 6.179 6.179 0 0 0 276.164 29.056 A 3.845 3.845 0 0 0 273.9 30.5 A 7.362 7.362 0 0 0 273.041 32.014 Q 272.718 32.764 272.482 33.676 A 16.462 16.462 0 0 0 272.2 35 A 9.416 9.416 0 0 1 271.648 36.888 Q 270.462 39.7 267.6 39.7 A 3.124 3.124 0 0 1 266.485 39.509 Q 265.725 39.222 265.217 38.498 A 3.515 3.515 0 0 1 265.15 38.4 Q 264.3 37.1 264.3 35.6 A 1.612 1.612 0 0 1 264.311 35.429 Q 264.339 35.172 264.439 34.718 A 18.693 18.693 0 0 1 264.5 34.45 A 6.116 6.116 0 0 1 264.628 33.985 Q 264.772 33.536 264.955 33.264 A 1.531 1.531 0 0 1 265 33.2 Q 266.432 31.864 269.047 30.072 A 70.435 70.435 0 0 1 269.3 29.9 A 30.701 30.701 0 0 1 273.492 27.53 A 36.954 36.954 0 0 1 275.65 26.6 A 19.925 19.925 0 0 1 280.508 25.337 A 17.737 17.737 0 0 1 282.7 25.2 A 8.549 8.549 0 0 1 287.41 26.628 A 10.702 10.702 0 0 1 287.95 27 A 12.698 12.698 0 0 1 291.298 30.706 A 15.396 15.396 0 0 1 291.9 31.8 A 14.201 14.201 0 0 1 293.281 36.526 A 17.692 17.692 0 0 1 293.4 38.6 Z M 61 43.6 Q 60.9 49.8 63.1 54 A 16.286 16.286 0 0 0 65.744 57.735 A 13.631 13.631 0 0 0 69 60.25 Q 72.7 62.3 77 62.3 A 13.274 13.274 0 0 0 79.955 61.982 A 11.132 11.132 0 0 0 81.9 61.35 A 17.742 17.742 0 0 0 83.867 60.359 A 13.001 13.001 0 0 0 85.6 59.15 A 40.288 40.288 0 0 0 86.294 58.559 Q 86.982 57.959 87.408 57.519 A 7.224 7.224 0 0 0 87.7 57.2 A 0.13 0.13 0 0 1 87.753 57.216 Q 87.87 57.272 88.131 57.531 A 6.713 6.713 0 0 1 88.15 57.55 A 1.164 1.164 0 0 1 88.466 58.149 A 1.708 1.708 0 0 1 88.5 58.5 A 2.583 2.583 0 0 1 88.393 59.211 Q 88.247 59.722 87.9 60.3 Q 87.041 61.636 85.271 63.473 A 43.401 43.401 0 0 1 85.1 63.65 A 16.415 16.415 0 0 1 82.646 65.701 A 21.699 21.699 0 0 1 80.3 67.1 A 13.283 13.283 0 0 1 76.106 68.423 A 17.141 17.141 0 0 1 73.6 68.6 Q 67.9 68.6 63.5 65.9 Q 59.1 63.2 56.6 58.6 A 20.778 20.778 0 0 1 54.149 49.881 A 24.99 24.99 0 0 1 54.1 48.3 A 24.208 24.208 0 0 1 55.255 40.767 A 22.613 22.613 0 0 1 55.85 39.15 A 26.01 26.01 0 0 1 59.074 33.421 A 23.478 23.478 0 0 1 60.45 31.75 A 24.113 24.113 0 0 1 64.427 28.197 A 20.958 20.958 0 0 1 66.7 26.8 A 16.666 16.666 0 0 1 69.74 25.538 A 12.445 12.445 0 0 1 73.3 25 Q 76.749 25 79.245 25.922 A 10.908 10.908 0 0 1 80.55 26.5 Q 83.4 28 85.05 30.2 A 16.155 16.155 0 0 1 86.441 32.383 A 12.245 12.245 0 0 1 87.35 34.6 Q 87.8 36.123 87.938 37.311 A 8.569 8.569 0 0 1 88 38.3 A 14.351 14.351 0 0 1 87.951 39.525 Q 87.844 40.775 87.5 41.6 A 2.095 2.095 0 0 1 86.932 42.405 Q 86.552 42.729 86.003 42.845 A 2.985 2.985 0 0 1 85.6 42.9 Q 84.865 42.982 82.962 43.03 A 140.266 140.266 0 0 1 82.05 43.05 A 469.071 469.071 0 0 0 79.588 43.103 Q 78.331 43.134 76.941 43.173 A 790.443 790.443 0 0 0 76 43.2 Q 72.6 43.3 69.3 43.4 Q 67.031 43.469 65.235 43.514 A 455.89 455.89 0 0 1 63.7 43.55 Q 61.735 43.593 61.157 43.599 A 15.361 15.361 0 0 1 61 43.6 Z M 205.6 32.8 L 205.6 56.5 Q 205.6 58.7 205.65 60.6 A 16.186 16.186 0 0 0 205.726 61.824 Q 205.787 62.419 205.893 62.924 A 7.023 7.023 0 0 0 206.1 63.7 A 0.802 0.802 0 0 0 206.307 63.984 Q 206.666 64.317 207.55 64.6 Q 208.8 65 210.2 65.15 Q 211.6 65.3 212.2 65.3 A 1.235 1.235 0 0 1 212.36 65.599 Q 212.515 66.005 212.55 66.7 A 4.42 4.42 0 0 1 212.555 66.863 Q 212.567 67.733 212.2 68.1 L 206.95 67.75 Q 205.016 67.621 202.603 67.603 A 106.907 106.907 0 0 0 201.8 67.6 Q 199 67.6 196.7 67.75 A 2968.376 2968.376 0 0 0 194.554 67.891 Q 193.088 67.988 191.4 68.1 A 1.038 1.038 0 0 1 191.17 67.733 Q 191.025 67.356 191.048 66.755 A 4.658 4.658 0 0 1 191.05 66.7 Q 191.089 65.915 191.282 65.5 A 1.119 1.119 0 0 1 191.4 65.3 Q 191.953 65.3 193.226 65.173 A 64.141 64.141 0 0 0 193.45 65.15 A 14.585 14.585 0 0 0 195.79 64.719 A 13.235 13.235 0 0 0 196.2 64.6 A 6.355 6.355 0 0 0 196.679 64.433 Q 197.405 64.144 197.564 63.808 A 0.467 0.467 0 0 0 197.6 63.7 A 7.385 7.385 0 0 0 197.851 62.702 Q 197.945 62.187 197.996 61.587 A 16.849 16.849 0 0 0 198.05 60.6 Q 198.1 58.7 198.1 56.5 L 198.1 38.3 Q 198.1 37.405 198.06 36.031 A 154.584 154.584 0 0 0 198.05 35.7 A 11.207 11.207 0 0 0 197.985 34.768 Q 197.879 33.85 197.618 33.241 A 3.267 3.267 0 0 0 197.6 33.2 Q 197.366 32.497 196.46 32.129 A 4.202 4.202 0 0 0 195.9 31.95 Q 194.5 31.6 193.1 31.55 A 214.914 214.914 0 0 0 192.535 31.531 Q 191.613 31.5 191.3 31.5 Q 191.201 31.301 191.101 30.313 A 25.192 25.192 0 0 1 191.1 30.3 Q 191.001 29.309 191.295 28.907 A 0.741 0.741 0 0 1 191.3 28.9 Q 195.1 28.4 198.7 27.4 A 32.212 32.212 0 0 0 202.927 25.916 A 26.933 26.933 0 0 0 205.2 24.8 A 0.587 0.587 0 0 1 205.535 24.911 Q 205.75 25.058 205.95 25.4 A 3.851 3.851 0 0 1 206.119 25.722 Q 206.275 26.058 206.296 26.318 A 0.988 0.988 0 0 1 206.3 26.4 A 2.155 2.155 0 0 1 206.293 26.551 Q 206.263 26.963 206.1 28.1 Q 205.9 29.5 205.75 30.9 Q 205.62 32.112 205.603 32.649 A 4.686 4.686 0 0 0 205.6 32.8 Z M 114.367 68.242 A 358.36 358.36 0 0 0 114.05 68.25 Q 112 68.3 110.15 68.4 A 30.661 30.661 0 0 0 109.507 68.441 Q 108.558 68.512 108.134 68.62 A 1.196 1.196 0 0 0 107.9 68.7 Q 106.3 69.7 104.2 71.5 A 8.401 8.401 0 0 0 103.185 72.52 Q 102.676 73.136 102.406 73.764 A 3.602 3.602 0 0 0 102.1 75.2 A 10.637 10.637 0 0 0 103.088 79.817 A 10.578 10.578 0 0 0 105.5 83.05 A 11.127 11.127 0 0 0 110.018 85.542 Q 111.704 86.036 113.72 86.159 A 22.597 22.597 0 0 0 115.1 86.2 A 16.314 16.314 0 0 0 120.731 85.171 A 19.326 19.326 0 0 0 121.9 84.7 A 18.972 18.972 0 0 0 125.55 82.601 A 16.123 16.123 0 0 0 127.6 80.8 Q 129.9 78.4 129.9 75.7 A 3.671 3.671 0 0 0 129.694 74.529 Q 129.528 74.037 129.23 73.509 A 9.252 9.252 0 0 0 128.6 72.55 Q 127.576 71.172 125.622 70.073 A 16.236 16.236 0 0 0 124.5 69.5 Q 121.7 68.2 117 68.2 Q 116.171 68.2 114.367 68.242 Z M 113.1 27.9 A 7.616 7.616 0 0 0 110.71 28.261 A 6.451 6.451 0 0 0 108.4 29.6 A 10.663 10.663 0 0 0 105.834 33.109 A 12.796 12.796 0 0 0 105.5 33.9 Q 104.5 36.5 104.5 39.3 Q 104.5 42.3 105.6 45.1 A 12.065 12.065 0 0 0 107.366 48.209 A 10.786 10.786 0 0 0 108.8 49.7 A 7.445 7.445 0 0 0 113.34 51.484 A 9.593 9.593 0 0 0 113.9 51.5 Q 116.6 51.5 118.45 49.85 A 10.082 10.082 0 0 0 120.897 46.5 A 12.192 12.192 0 0 0 121.25 45.65 Q 122.2 43.1 122.2 40.4 Q 122.2 37.3 121.2 34.45 A 12.293 12.293 0 0 0 119.71 31.489 A 10.591 10.591 0 0 0 118.2 29.75 A 6.883 6.883 0 0 0 114.314 27.976 A 9.368 9.368 0 0 0 113.1 27.9 Z M 286 59.3 L 286 46 A 637.144 637.144 0 0 1 284.988 46.319 Q 283.482 46.791 281.486 47.411 A 1810.437 1810.437 0 0 1 281.2 47.5 Q 278.326 48.392 276.925 48.891 A 34.115 34.115 0 0 0 276.9 48.9 A 11.532 11.532 0 0 0 274.002 50.502 A 10.227 10.227 0 0 0 272.6 51.8 A 6.63 6.63 0 0 0 270.927 55.814 A 8.701 8.701 0 0 0 270.9 56.5 Q 270.9 59.2 272.8 61.25 A 6.129 6.129 0 0 0 277.239 63.295 A 7.481 7.481 0 0 0 277.5 63.3 Q 279.094 63.3 280.951 62.597 A 14.334 14.334 0 0 0 281.2 62.5 A 21.953 21.953 0 0 0 282.835 61.771 Q 283.813 61.284 284.6 60.75 Q 286 59.8 286 59.3 Z M 61.5 40 L 77.4 40 Q 78.3 40 78.95 39.5 A 1.602 1.602 0 0 0 79.407 38.923 Q 79.532 38.667 79.607 38.338 A 4.408 4.408 0 0 0 79.7 37.7 A 3.309 3.309 0 0 0 79.711 37.457 Q 79.721 36.398 79.131 34.672 A 20.28 20.28 0 0 0 79 34.3 A 11.069 11.069 0 0 0 76.77 30.641 A 12.864 12.864 0 0 0 76.45 30.3 A 5.808 5.808 0 0 0 73.294 28.643 A 8.452 8.452 0 0 0 71.7 28.5 A 9.007 9.007 0 0 0 69.363 28.789 A 6.811 6.811 0 0 0 66.6 30.25 Q 64.6 32 63.45 34.25 A 27.11 27.11 0 0 0 62.686 35.867 Q 62.131 37.156 61.85 38.25 Q 61.4 40 61.5 40 Z M 197.605 6.495 A 4.703 4.703 0 0 0 196.2 9.9 A 4.805 4.805 0 0 0 196.488 11.572 A 4.897 4.897 0 0 0 197.65 13.35 A 5.902 5.902 0 0 0 197.695 13.395 A 4.703 4.703 0 0 0 201.1 14.8 A 4.805 4.805 0 0 0 202.772 14.512 A 4.897 4.897 0 0 0 204.55 13.35 A 5.902 5.902 0 0 0 204.595 13.305 A 4.703 4.703 0 0 0 206 9.9 A 4.805 4.805 0 0 0 205.712 8.228 A 4.897 4.897 0 0 0 204.55 6.45 A 5.902 5.902 0 0 0 204.505 6.405 A 4.703 4.703 0 0 0 201.1 5 A 4.805 4.805 0 0 0 199.428 5.288 A 4.897 4.897 0 0 0 197.65 6.45 A 5.902 5.902 0 0 0 197.605 6.495 Z" vector-effect="non-scaling-stroke"/></g></svg>